<svg xmlns="http://www.w3.org/2000/svg" xmlns:xlink="http://www.w3.org/1999/xlink" width="194.226" height="86.524" viewBox="0 0 194.226 56.524">
  <defs>
    <linearGradient id="linear-gradient" x1="-7.621" y1="0.5" x2="9.207" y2="0.5" gradientUnits="objectBoundingBox">
      <stop offset="0.106" stop-color="#fff"/>
      <stop offset="0.198" stop-color="#f4fefe"/>
      <stop offset="0.356" stop-color="#d9fefc"/>
      <stop offset="0.561" stop-color="#acfdf9"/>
      <stop offset="0.802" stop-color="#6ffcf5"/>
      <stop offset="0.926" stop-color="#4dfcf3"/>
    </linearGradient>
    <linearGradient id="linear-gradient-2" x1="-0.341" y1="0.5" x2="1.401" y2="0.5" xlink:href="#linear-gradient"/>
    <linearGradient id="linear-gradient-3" x1="-10.513" y1="0.5" x2="6.314" y2="0.5" xlink:href="#linear-gradient"/>
    <linearGradient id="linear-gradient-4" x1="-4.73" y1="0.5" x2="12.102" y2="0.5" xlink:href="#linear-gradient"/>
    <clipPath id="clip-path">
      <path id="Path_5278" data-name="Path 5278" d="M123.359,255.519l-.2.016-.2.027-.22.04-.216.047-.2.056a5.72,5.72,0,0,0-.618.24l-.187.093-.184.1-.178.113-.176.124-.171.131-.156.136c-.118.116-.22.216-.336.336l-.131.156-.131.169-.12.169-.111.176-.1.185-.1.187c-.067.144-.111.258-.169.409s-.084.264-.124.409l-.049.222-.04.218-.024.2-.016.207v.447c.009.149.022.267.04.416s.053.282.087.433l.053.2c.047.142.093.271.147.411l.091.2.091.187.109.191.116.18.124.176.133.173.138.156.24.249.131.122.142.12.153.116.153.1c.069.049.133.089.187.12l.184.107.193.1.2.087.211.08.2.065.207.058.211.047.22.038.207.029.2.013h.447l.207-.013c.149-.02.28-.04.427-.067l.209-.047.213-.06.2-.067.2-.073.2-.091.189-.093.182-.1.184-.118.189-.136.162-.122.169-.147c.113-.111.216-.213.327-.327.089-.1.164-.2.249-.309l.12-.175c.044-.06.084-.122.122-.185l.1-.184.1-.2.087-.2.082-.211a5.894,5.894,0,0,0,.164-.611l.04-.222.029-.209.016-.2v-.444l-.016-.209c-.02-.147-.04-.28-.069-.427a2,2,0,0,0-.047-.22l-.051-.193-.071-.216-.076-.191-.089-.2-.1-.193c-.027-.056-.064-.118-.1-.187l-.116-.182-.124-.175-.138-.176c-.033-.042-.082-.1-.144-.169-.111-.116-.2-.211-.324-.322l-.156-.131a1.758,1.758,0,0,0-.153-.122c-.187-.129-.349-.236-.547-.347l-.189-.093c-.142-.064-.267-.113-.411-.169a1.555,1.555,0,0,0-.2-.065l-.2-.058-.216-.047-.222-.04-.2-.027-.207-.016Z" transform="translate(-119.192 -255.519)" fill="url(#linear-gradient)"/>
    </clipPath>
    <linearGradient id="linear-gradient-6" x1="-7.621" y1="0.5" x2="9.207" y2="0.5" xlink:href="#linear-gradient"/>
    <clipPath id="clip-path-2">
      <path id="Path_5280" data-name="Path 5280" d="M125.049,267.869c.122-.171.251-.338.4-.52l0-.064.227-.22a10.459,10.459,0,0,1,1.938-1.551,7.828,7.828,0,0,1,2.38-.92l.018-.007c.264-.051.529-.087.787-.118h0c.278-.031.507-.051.738-.069l.12-.011.2.013.407.024a8.148,8.148,0,0,1,7.738,7.2l.029.329.016.313.009.309h0l0,.3-.018.32-.031.307a5.24,5.24,0,0,1-.118.693,8.585,8.585,0,0,1-2.491,4.36,7.779,7.779,0,0,1-4.451,2.058c-.184.02-.364.036-.54.049l-.629.038-.127-.009c-.249-.02-.493-.04-.789-.073-.278-.029-.558-.069-.842-.122h-.007a7.406,7.406,0,0,1-2.4-.927,10.672,10.672,0,0,1-1.942-1.556l-.222-.22v-.06c-.107-.127-.211-.256-.309-.389a7.608,7.608,0,0,1-.442-.662l-.149-.267-.129-.251-.24-.518a7.211,7.211,0,0,1-.262-.718,5.21,5.21,0,0,1-.18-.716l-.051-.276-.042-.3-.038-.3c-.011-.116-.029-.236-.038-.351-.016-.209-.024-.322-.024-.451.011-.271.031-.522.058-.791l.04-.307.044-.309a3.152,3.152,0,0,1,.08-.393c.073-.222.12-.371.162-.513a8.47,8.47,0,0,1,.527-1.387l.32-.662.047.022c.076-.116.149-.224.227-.333m25.414.007c.122-.171.251-.338.4-.52v-.064l.224-.22a10.55,10.55,0,0,1,1.94-1.551,7.832,7.832,0,0,1,2.38-.92l.018,0c.267-.053.529-.091.787-.12h0c.278-.031.509-.051.738-.069l.209-.018.111.009.407.022a8.143,8.143,0,0,1,7.738,7.2l.029.329.016.313.009.309h0l0,.3-.018.32-.031.307a6.094,6.094,0,0,1-.118.693,8.585,8.585,0,0,1-2.491,4.36,7.787,7.787,0,0,1-4.451,2.058q-.277.03-.54.047c-.242.016-.482.029-.722.047l-.033,0c-.249-.02-.493-.04-.789-.071-.278-.031-.558-.069-.842-.124h0a7.4,7.4,0,0,1-2.4-.927,10.428,10.428,0,0,1-1.942-1.558l-.222-.218v-.058c-.107-.129-.209-.258-.307-.391a7.571,7.571,0,0,1-.444-.66l-.149-.269-.129-.249-.238-.52a6.647,6.647,0,0,1-.264-.718,5.068,5.068,0,0,1-.18-.716l-.049-.276-.042-.3-.04-.293c-.011-.118-.027-.238-.036-.353-.018-.209-.027-.322-.027-.451.009-.271.033-.52.058-.791l.04-.309.047-.309a3.007,3.007,0,0,1,.078-.393c.073-.22.12-.369.164-.511a8.315,8.315,0,0,1,.524-1.387l.32-.662.047.022c.076-.116.149-.224.227-.333m31.972-12.351-.236.013-.2.018-.218.033-.22.042-.2.049-.213.064-.171.06-.222.091-.162.071-.2.1-.2.118-.147.093-.189.14-.147.116-.182.16a5.057,5.057,0,0,0-.36.373l0,0a4.186,4.186,0,0,0-.293.384,4.038,4.038,0,0,0-.251.429c-.082.16-.16.329-.233.5l-.078.211-.071.224-.051.184-.038.187c-.022.131-.038.251-.051.384l-.031.491c-.022.364-.056.716-.1,1.058a8.414,8.414,0,0,1-.209,1.038,7.855,7.855,0,0,1-.362,1.033,7.413,7.413,0,0,1-.533,1.009l-.044.071-.011.011c-.127.191-.256.373-.387.558l-.156.2-.162.2-.178.2-.191.2-.191.189c-.149.149-.344.311-.522.46-.138.111-.269.207-.411.309-.189.129-.389.267-.587.38a8.066,8.066,0,0,1-2.5.951,8.28,8.28,0,0,1-4.911-.531,7.958,7.958,0,0,1-3.74-3.293,8.061,8.061,0,0,1-.942-2.5v-.011c-.047-.251-.08-.5-.107-.742-.027-.26-.04-.478-.056-.691l-.04-.529c-.013-.142-.033-.3-.058-.476l-.036-.171-.042-.178a5.4,5.4,0,0,0-.189-.564,3.919,3.919,0,0,0-.244-.5,3.832,3.832,0,0,0-.309-.464,5.55,5.55,0,0,0-.4-.46l-.158-.149-.189-.164-.136-.109-.211-.144-.164-.107-.207-.116-.151-.078-.213-.091-.218-.084-.209-.069-.209-.058-.182-.04-.251-.042-.173-.022-.256-.018-.207,0h-.3l-.238.013-.2.02-.22.031-.216.042-.2.049-.213.064-.171.058-.224.093-.16.071-.2.1-.2.118-.144.1-.189.138-.147.116-.182.162a4.637,4.637,0,0,0-.36.373l0,0a3.593,3.593,0,0,0-.293.384,4.54,4.54,0,0,0-.249.429q-.123.24-.233.507l-.078.209-.073.227-.049.182-.04.187c-.02.131-.036.253-.049.384l-.033.493c-.02.362-.053.713-.1,1.056a8.755,8.755,0,0,1-.211,1.038,7.445,7.445,0,0,1-.362,1.033,7.179,7.179,0,0,1-.531,1.011l-.044.069-.013.013c-.124.189-.253.371-.387.556l-.153.2-.162.2-.18.2-.189.2-.191.189c-.149.151-.344.311-.524.46-.136.111-.267.207-.409.309-.191.129-.389.267-.587.382a8.131,8.131,0,0,1-2.5.949,8.283,8.283,0,0,1-4.911-.531,7.975,7.975,0,0,1-3.74-3.291,8.2,8.2,0,0,1-.942-2.5v-.007c-.047-.253-.078-.5-.1-.747s-.042-.476-.058-.689l-.04-.529c-.013-.14-.031-.3-.058-.476l-.033-.169-.042-.18c-.058-.2-.118-.387-.189-.564a4.406,4.406,0,0,0-.244-.5,4.319,4.319,0,0,0-.309-.465,6.069,6.069,0,0,0-.4-.458l-.158-.151-.187-.162-.138-.109-.207-.147-.169-.107-.2-.116-.153-.078-.211-.091-.218-.084-.209-.067-.207-.058-.184-.042-.251-.042-.176-.022-.253-.018h-.024l-.078-.009-.227-.011-.178,0-.236.013-.2.018-.22.033-.216.042-.2.049-.213.064-.173.06-.222.091-.162.071-.2.1-.2.118-.144.093-.189.14-.147.116-.182.16a5.042,5.042,0,0,0-.36.373l0,0a4.185,4.185,0,0,0-.293.384,4.034,4.034,0,0,0-.249.429c-.084.16-.16.329-.233.5l-.078.211-.073.224-.051.184-.038.187c-.02.131-.036.251-.049.384l-.033.491c-.022.364-.053.716-.1,1.058a9.323,9.323,0,0,1-.211,1.038,7.257,7.257,0,0,1-.362,1.033,7.4,7.4,0,0,1-.531,1.009l-.047.071-.011.011c-.127.191-.253.373-.387.558l-.153.2-.164.2-.178.2-.191.2-.191.189a6.882,6.882,0,0,1-.522.46c-.136.111-.267.207-.409.309-.191.129-.389.267-.587.38a8.077,8.077,0,0,1-2.5.951,8.282,8.282,0,0,1-4.911-.531,7.979,7.979,0,0,1-3.74-3.293,8.114,8.114,0,0,1-.94-2.5v-.011c-.049-.251-.082-.5-.107-.742-.027-.26-.042-.478-.058-.691l-.04-.529c-.011-.142-.031-.3-.058-.476l-.033-.171-.042-.178a5.412,5.412,0,0,0-.191-.564,3.654,3.654,0,0,0-.244-.5,3.587,3.587,0,0,0-.309-.464,5.958,5.958,0,0,0-.4-.46l-.158-.149-.189-.164-.138-.109-.207-.144-.169-.107-.2-.116-.153-.078-.211-.091-.218-.084-.209-.069-.209-.058-.182-.04-.253-.042-.171-.022-.256-.018-.207,0-.2,0-.256.02-.167.02-.26.047-.178.038-.224.062a6.225,6.225,0,0,0-.622.242l-.162.08-.184.1-.216.138-.18.129-.144.111-.169.144-.162.156-.151.158-.142.169-.113.138-.118.169-.124.191-.111.191-.08.156-.1.22-.078.193-.067.187-.056.193c-.033.136-.06.264-.089.4l-.036.242-.018.193-.011.231,0,.171.011.242.018.189.029.211.04.2.056.24.047.162.076.22.082.211.08.182.089.171.1.176.124.2.109.153.122.156.144.171c.107.111.211.218.32.316a3.711,3.711,0,0,0,.324.269c.118.087.233.164.353.238s.251.144.407.224c.176.078.342.14.522.2l.247.076.162.042.216.044.322.049.376.029.407.022a8.138,8.138,0,0,1,7.736,7.2l.031.329.016.313.007.309h0l0,.3-.016.32-.033.307a5.642,5.642,0,0,1-.116.693,8.585,8.585,0,0,1-2.491,4.36,7.793,7.793,0,0,1-4.453,2.058c-.182.02-.362.036-.538.047-.3.018-.6.033-.9.058l-.187.024-.173.029-.184.04-.193.049-.22.069-.273.1-.293.127c-.14.073-.264.14-.373.207-.124.078-.242.156-.349.236a3.7,3.7,0,0,0-.324.269c-.109.1-.216.207-.324.32l-.12.142-.147.189-.1.144-.127.2-.107.184-.08.155-.1.222-.062.16-.08.231-.049.169-.053.24-.04.193-.029.213-.018.187-.011.242,0,.173.011.231.018.193.031.207.049.238.042.184.058.2.067.191.089.222.082.178.084.167.12.207.1.158.113.158.153.193.116.138c.173.178.3.3.493.467l.136.107.211.149.169.1.184.109.218.107.158.071.2.078.233.076.213.06.2.042.238.042.171.022.256.018.2,0,.2,0,.256-.02.178-.022.253-.044.2-.042.184-.053.236-.078.211-.08.162-.071.224-.113.151-.087.216-.136.176-.124.147-.116.162-.138.169-.162c.138-.144.264-.289.391-.444.1-.133.187-.262.262-.382v0a4.116,4.116,0,0,0,.2-.364,3.432,3.432,0,0,0,.162-.384c.051-.142.1-.28.136-.42l.047-.2c.031-.182.058-.364.076-.544s.033-.4.049-.616.033-.431.06-.689.058-.491.107-.744v-.009a7.966,7.966,0,0,1,2.913-4.711,8.29,8.29,0,0,1,5.322-1.767h.016a8.649,8.649,0,0,1,1.851.28,8.4,8.4,0,0,1,1.736.691,1.813,1.813,0,0,1,.256.142,8.59,8.59,0,0,1,2.338,2.033,7.675,7.675,0,0,1,1.362,2.678,8.627,8.627,0,0,1,.207.924c.058.324.1.649.12.962,0,.249.033.542.049.8l.016.175.036.222.031.151.067.244.062.193.078.209c.073.178.151.349.233.509a4.076,4.076,0,0,0,.251.427,3.536,3.536,0,0,0,.291.382,4.773,4.773,0,0,0,.38.4l.147.129.173.14.158.111.2.131.176.1.16.084.213.1.193.08.18.062.2.06.229.058.2.038.222.033.191.018.242.013h.2l.1,0,.2,0,.256-.02.178-.02.253-.047.2-.042.187-.051.233-.08.211-.08.162-.071.224-.113.151-.087.216-.136.176-.124.149-.113.16-.14.169-.162c.138-.147.264-.289.393-.444.1-.133.184-.26.26-.382v0c.078-.131.147-.253.2-.367a3.911,3.911,0,0,0,.162-.384c.051-.14.1-.278.138-.42l.044-.2c.033-.18.058-.364.076-.547s.033-.4.051-.613.031-.429.058-.689c.027-.244.058-.491.107-.742v-.009a7.968,7.968,0,0,1,2.916-4.713,8.284,8.284,0,0,1,5.32-1.767h.016a8.7,8.7,0,0,1,1.853.28,8.564,8.564,0,0,1,1.733.691,2.066,2.066,0,0,1,.256.142,8.611,8.611,0,0,1,2.34,2.036,7.65,7.65,0,0,1,1.36,2.678,9.177,9.177,0,0,1,.209.922c.056.325.093.647.12.96,0,.253.031.544.047.8l.018.173.033.222.033.151.064.244.062.193.078.211q.11.267.233.507a4.31,4.31,0,0,0,.251.427,3.3,3.3,0,0,0,.291.384,5.136,5.136,0,0,0,.38.393l.147.129.173.14.158.113.2.129.178.1.158.084.216.1.2.078.178.062.2.06.227.058.2.038.222.033.191.018.244.013h.171l.236-.011.058,0h.036l.253-.02.178-.022.253-.044.2-.042.187-.053.236-.078.209-.08.164-.071.222-.113.151-.087.216-.136.176-.124.149-.116.16-.138.169-.162c.138-.144.267-.289.393-.444.1-.133.184-.262.258-.382v0a3.248,3.248,0,0,0,.2-.364c.06-.127.116-.251.164-.384s.1-.28.133-.42l.049-.2c.031-.182.056-.364.073-.544s.036-.4.051-.616.031-.431.058-.689.06-.491.107-.744v-.009a7.969,7.969,0,0,1,2.916-4.711,8.288,8.288,0,0,1,5.32-1.767h.018a8.606,8.606,0,0,1,1.849.28,8.4,8.4,0,0,1,1.736.691,1.811,1.811,0,0,1,.256.142,8.6,8.6,0,0,1,2.34,2.033,7.669,7.669,0,0,1,1.36,2.678,9.217,9.217,0,0,1,.209.924c.056.324.1.649.118.962,0,.249.033.542.049.8l.018.175.033.222.033.151.067.244.06.193.078.209c.073.178.151.349.233.509a4.509,4.509,0,0,0,.251.427,3.875,3.875,0,0,0,.293.382,4.729,4.729,0,0,0,.378.4l.149.129.171.14.158.111.2.131.178.1.16.084.213.1.2.08.178.062.2.06.227.058.2.038.222.033.189.018.242.013h.173l.236-.011.189-.018.222-.031.2-.038.242-.058a4.813,4.813,0,0,0,.976-.391l.153-.089.184-.12.193-.136.14-.109.16-.138.156-.149.162-.169.129-.156.133-.167.129-.182.122-.191.107-.187.08-.162.089-.2.093-.236.062-.187c.038-.14.073-.273.107-.418l.038-.231.024-.18.02-.253.007-.2,0-.2-.018-.216-.029-.247-.031-.193-.047-.218-.058-.216-.067-.2-.076-.2-.073-.171-.109-.222-.089-.16-.113-.18-.129-.187-.142-.187-.111-.133-.167-.178-.153-.147-.164-.144-.162-.133-.151-.111-.3-.182q-.12-.07-.273-.147c-.087-.047-.176-.087-.267-.127s-.171-.069-.269-.1l-.244-.071-.193-.049-.156-.031-.2-.031-.464-.055-.229-.018c-.251-.02-.5-.04-.791-.073-.278-.029-.556-.069-.842-.122h0a7.4,7.4,0,0,1-2.4-.927,10.672,10.672,0,0,1-1.942-1.556l-.222-.22v-.06c-.1-.127-.209-.256-.307-.389-.151-.2-.3-.42-.444-.662l-.149-.267-.127-.251-.242-.518a7.262,7.262,0,0,1-.26-.718,4.954,4.954,0,0,1-.182-.716l-.049-.276-.044-.3-.036-.3c-.013-.116-.029-.236-.038-.351-.018-.209-.027-.322-.027-.451.011-.271.031-.522.06-.791l.038-.307.047-.309a3.156,3.156,0,0,1,.078-.393c.073-.222.12-.371.162-.513a8.47,8.47,0,0,1,.527-1.387l.32-.662.047.022c.076-.116.149-.224.227-.333.124-.171.251-.338.4-.52v-.064l.227-.22a10.4,10.4,0,0,1,1.94-1.551,7.829,7.829,0,0,1,2.38-.92l.016-.007c.267-.051.529-.087.789-.118h0c.28-.031.509-.051.738-.069l.553-.047.213-.029.236-.038.151-.031.193-.049.229-.069c.091-.031.184-.069.284-.111a2.527,2.527,0,0,0,.269-.124l0,0c.1-.049.187-.1.264-.14l.271-.164.184-.133c.111-.091.209-.176.316-.271l.156-.149.158-.164L186,262.7l.111-.142.12-.176.122-.193.111-.2.08-.162.1-.229.073-.2.058-.178.062-.236.044-.2.031-.2.029-.247.016-.218,0-.2,0-.2-.022-.255-.024-.18a6.414,6.414,0,0,0-.144-.644l-.064-.187-.091-.238-.076-.169-.1-.209-.111-.193-.116-.185-.1-.147-.14-.178-.136-.158-.162-.167-.156-.151-.162-.14-.147-.113-.169-.122-.2-.127-.2-.111-.151-.078-.224-.1-.164-.067-.227-.078-.171-.051-.244-.056-.207-.04-.211-.029-.193-.02-.229-.011Z" transform="translate(-102.069 -255.522)" fill="url(#linear-gradient-2)"/>
    </clipPath>
    <linearGradient id="linear-gradient-8" x1="-0.341" y1="0.5" x2="1.401" y2="0.5" xlink:href="#linear-gradient"/>
    <clipPath id="clip-path-3">
      <path id="Path_5282" data-name="Path 5282" d="M134.793,266.854l-.2.016-.207.027-.22.04-.216.047-.2.056a6.224,6.224,0,0,0-.618.238l-.187.1-.184.1-.18.113-.176.124-.169.133-.158.133c-.118.118-.22.216-.333.338l-.133.156-.131.169-.12.169-.111.175-.1.185-.1.187c-.067.144-.111.26-.169.409s-.084.262-.122.409l-.051.22-.038.22-.029.2-.013.207v.447c.011.149.022.267.042.416s.051.28.084.433l.053.2c.049.142.093.271.149.411l.089.2.091.187.109.189.116.182.127.176.131.173.14.156.238.249.133.12.142.122.151.116.156.1a2.137,2.137,0,0,0,.184.12l.187.107.193.1.193.087.209.08.2.064.207.058.213.047.218.04.207.024.2.016h.444l.209-.016c.149-.018.28-.04.427-.064l.209-.047.213-.06.2-.064.2-.076.2-.091.189-.1.182-.1.184-.118.191-.136.16-.122.171-.147c.111-.111.216-.213.324-.327.089-.107.164-.2.249-.309l.12-.176c.044-.062.084-.124.122-.187l.107-.184.1-.2.087-.2.082-.211c.071-.216.118-.391.169-.613l.036-.22.029-.209.016-.2v-.444l-.016-.209c-.02-.149-.04-.28-.064-.427-.011-.056-.027-.131-.051-.22l-.049-.193-.073-.216-.076-.191-.089-.2-.1-.193c-.027-.056-.064-.12-.1-.187l-.118-.184-.124-.173-.138-.176c-.033-.042-.082-.1-.144-.167-.111-.12-.2-.213-.324-.324l-.156-.131a1.478,1.478,0,0,0-.153-.122c-.184-.129-.347-.233-.547-.347l-.189-.093c-.142-.064-.267-.113-.411-.169a1.848,1.848,0,0,0-.2-.067l-.2-.056-.216-.047-.218-.04-.2-.027-.207-.016Z" transform="translate(-130.628 -266.854)" fill="url(#linear-gradient-3)"/>
    </clipPath>
    <linearGradient id="linear-gradient-10" x1="-10.512" y1="0.5" x2="6.314" y2="0.5" xlink:href="#linear-gradient"/>
    <clipPath id="clip-path-4">
      <path id="Path_5284" data-name="Path 5284" d="M111.923,266.854l-.207.016-.2.027-.22.04-.218.047-.2.056a6.488,6.488,0,0,0-.62.238l-.184.1-.182.1-.18.113-.176.124-.171.133-.156.133c-.118.118-.22.216-.333.338l-.136.156-.131.169-.12.169-.109.175-.107.185-.093.187c-.069.144-.113.26-.169.409s-.084.262-.124.409l-.049.22-.04.22-.024.2-.016.207v.447c.011.149.02.267.04.416s.053.28.087.433l.053.2c.047.142.093.271.147.411l.089.2.093.187.111.189.113.182.124.176.133.173.138.156.242.249.129.12.142.122.153.116.153.1c.069.049.133.089.187.12l.184.107.193.1.193.087.211.08.2.064.209.058.211.047.22.04.2.024.207.016h.444l.209-.016c.149-.018.278-.04.427-.064l.209-.047.213-.06.2-.064.2-.076.2-.091.191-.1.182-.1.184-.118.189-.136.16-.122.171-.147c.113-.111.218-.213.327-.327.089-.107.164-.2.249-.309l.12-.176c.042-.062.084-.124.12-.187l.107-.184.1-.2.087-.2.082-.211c.069-.216.118-.391.167-.613l.038-.22.027-.209.016-.2v-.444l-.016-.209c-.018-.149-.038-.28-.064-.427-.009-.056-.027-.131-.049-.22l-.051-.193-.071-.216-.076-.191-.091-.2-.1-.193c-.029-.056-.064-.12-.107-.187l-.116-.184-.122-.173-.14-.176c-.033-.042-.08-.1-.142-.167-.111-.12-.207-.213-.324-.324l-.156-.131c-.042-.038-.093-.078-.153-.122-.187-.129-.349-.233-.547-.347l-.189-.093c-.142-.064-.267-.113-.413-.169a1.593,1.593,0,0,0-.2-.067l-.2-.056-.213-.047-.222-.04-.2-.027-.207-.016Z" transform="translate(-107.756 -266.854)" fill="url(#linear-gradient-4)"/>
    </clipPath>
    <linearGradient id="linear-gradient-12" x1="-4.729" y1="0.5" x2="12.101" y2="0.5" xlink:href="#linear-gradient"/>
    <linearGradient id="linear-gradient-13" x1="-3.004" y1="0.5" x2="1.49" y2="0.5" xlink:href="#linear-gradient"/>
    <linearGradient id="linear-gradient-14" x1="-0.303" y1="0.5" x2="3.916" y2="0.5" xlink:href="#linear-gradient"/>
  </defs>
  <g id="Group_3143" data-name="Group 3143" transform="translate(-78.206 -251.402)">
    <g id="Group_3144" data-name="Group 3144" transform="translate(169.288 260.551)">
      <path id="Path_5277" data-name="Path 5277" d="M123.359,255.519l-.2.016-.2.027-.22.04-.216.047-.2.056a5.72,5.72,0,0,0-.618.24l-.187.093-.184.1-.178.113-.176.124-.171.131-.156.136c-.118.116-.22.216-.336.336l-.131.156-.131.169-.12.169-.111.176-.1.185-.1.187c-.067.144-.111.258-.169.409s-.084.264-.124.409l-.049.222-.04.218-.024.2-.016.207v.447c.009.149.022.267.04.416s.053.282.087.433l.053.2c.047.142.093.271.147.411l.091.2.091.187.109.191.116.18.124.176.133.173.138.156.24.249.131.122.142.12.153.116.153.1c.069.049.133.089.187.12l.184.107.193.1.2.087.211.08.2.065.207.058.211.047.22.038.207.029.2.013h.447l.207-.013c.149-.02.28-.04.427-.067l.209-.047.213-.06.2-.067.2-.073.2-.091.189-.093.182-.1.184-.118.189-.136.162-.122.169-.147c.113-.111.216-.213.327-.327.089-.1.164-.2.249-.309l.12-.175c.044-.06.084-.122.122-.185l.1-.184.1-.2.087-.2.082-.211a5.894,5.894,0,0,0,.164-.611l.04-.222.029-.209.016-.2v-.444l-.016-.209c-.02-.147-.04-.28-.069-.427a2,2,0,0,0-.047-.22l-.051-.193-.071-.216-.076-.191-.089-.2-.1-.193c-.027-.056-.064-.118-.1-.187l-.116-.182-.124-.175-.138-.176c-.033-.042-.082-.1-.144-.169-.111-.116-.2-.211-.324-.322l-.156-.131a1.758,1.758,0,0,0-.153-.122c-.187-.129-.349-.236-.547-.347l-.189-.093c-.142-.064-.267-.113-.411-.169a1.555,1.555,0,0,0-.2-.065l-.2-.058-.216-.047-.222-.04-.2-.027-.207-.016Z" transform="translate(-119.192 -255.519)" fill="url(#linear-gradient)"/>
      <g id="Group_3143-2" data-name="Group 3143" clip-path="url(#clip-path)">
        <rect id="Rectangle_1124" data-name="Rectangle 1124" width="8.787" height="8.787" transform="translate(-0.001 0.001)" fill="url(#linear-gradient-6)"/>
      </g>
    </g>
    <g id="Group_3146" data-name="Group 3146" transform="translate(131.236 260.557)">
      <path id="Path_5279" data-name="Path 5279" d="M125.049,267.869c.122-.171.251-.338.4-.52l0-.064.227-.22a10.459,10.459,0,0,1,1.938-1.551,7.828,7.828,0,0,1,2.38-.92l.018-.007c.264-.051.529-.087.787-.118h0c.278-.031.507-.051.738-.069l.12-.011.2.013.407.024a8.148,8.148,0,0,1,7.738,7.2l.029.329.016.313.009.309h0l0,.3-.018.32-.031.307a5.24,5.24,0,0,1-.118.693,8.585,8.585,0,0,1-2.491,4.36,7.779,7.779,0,0,1-4.451,2.058c-.184.02-.364.036-.54.049l-.629.038-.127-.009c-.249-.02-.493-.04-.789-.073-.278-.029-.558-.069-.842-.122h-.007a7.406,7.406,0,0,1-2.4-.927,10.672,10.672,0,0,1-1.942-1.556l-.222-.22v-.06c-.107-.127-.211-.256-.309-.389a7.608,7.608,0,0,1-.442-.662l-.149-.267-.129-.251-.24-.518a7.211,7.211,0,0,1-.262-.718,5.21,5.21,0,0,1-.18-.716l-.051-.276-.042-.3-.038-.3c-.011-.116-.029-.236-.038-.351-.016-.209-.024-.322-.024-.451.011-.271.031-.522.058-.791l.04-.307.044-.309a3.152,3.152,0,0,1,.08-.393c.073-.222.12-.371.162-.513a8.47,8.47,0,0,1,.527-1.387l.32-.662.047.022c.076-.116.149-.224.227-.333m25.414.007c.122-.171.251-.338.4-.52v-.064l.224-.22a10.55,10.55,0,0,1,1.94-1.551,7.832,7.832,0,0,1,2.38-.92l.018,0c.267-.053.529-.091.787-.12h0c.278-.031.509-.051.738-.069l.209-.018.111.009.407.022a8.143,8.143,0,0,1,7.738,7.2l.029.329.016.313.009.309h0l0,.3-.018.32-.031.307a6.094,6.094,0,0,1-.118.693,8.585,8.585,0,0,1-2.491,4.36,7.787,7.787,0,0,1-4.451,2.058q-.277.03-.54.047c-.242.016-.482.029-.722.047l-.033,0c-.249-.02-.493-.04-.789-.071-.278-.031-.558-.069-.842-.124h0a7.4,7.4,0,0,1-2.4-.927,10.428,10.428,0,0,1-1.942-1.558l-.222-.218v-.058c-.107-.129-.209-.258-.307-.391a7.571,7.571,0,0,1-.444-.66l-.149-.269-.129-.249-.238-.52a6.647,6.647,0,0,1-.264-.718,5.068,5.068,0,0,1-.18-.716l-.049-.276-.042-.3-.04-.293c-.011-.118-.027-.238-.036-.353-.018-.209-.027-.322-.027-.451.009-.271.033-.52.058-.791l.04-.309.047-.309a3.007,3.007,0,0,1,.078-.393c.073-.22.12-.369.164-.511a8.315,8.315,0,0,1,.524-1.387l.32-.662.047.022c.076-.116.149-.224.227-.333m31.972-12.351-.236.013-.2.018-.218.033-.22.042-.2.049-.213.064-.171.06-.222.091-.162.071-.2.1-.2.118-.147.093-.189.14-.147.116-.182.16a5.057,5.057,0,0,0-.36.373l0,0a4.186,4.186,0,0,0-.293.384,4.038,4.038,0,0,0-.251.429c-.082.16-.16.329-.233.5l-.078.211-.071.224-.051.184-.038.187c-.022.131-.038.251-.051.384l-.031.491c-.022.364-.056.716-.1,1.058a8.414,8.414,0,0,1-.209,1.038,7.855,7.855,0,0,1-.362,1.033,7.413,7.413,0,0,1-.533,1.009l-.044.071-.011.011c-.127.191-.256.373-.387.558l-.156.2-.162.2-.178.2-.191.2-.191.189c-.149.149-.344.311-.522.46-.138.111-.269.207-.411.309-.189.129-.389.267-.587.38a8.066,8.066,0,0,1-2.5.951,8.28,8.28,0,0,1-4.911-.531,7.958,7.958,0,0,1-3.74-3.293,8.061,8.061,0,0,1-.942-2.5v-.011c-.047-.251-.08-.5-.107-.742-.027-.26-.04-.478-.056-.691l-.04-.529c-.013-.142-.033-.3-.058-.476l-.036-.171-.042-.178a5.4,5.4,0,0,0-.189-.564,3.919,3.919,0,0,0-.244-.5,3.832,3.832,0,0,0-.309-.464,5.55,5.55,0,0,0-.4-.46l-.158-.149-.189-.164-.136-.109-.211-.144-.164-.107-.207-.116-.151-.078-.213-.091-.218-.084-.209-.069-.209-.058-.182-.04-.251-.042-.173-.022-.256-.018-.207,0h-.3l-.238.013-.2.02-.22.031-.216.042-.2.049-.213.064-.171.058-.224.093-.16.071-.2.1-.2.118-.144.1-.189.138-.147.116-.182.162a4.637,4.637,0,0,0-.36.373l0,0a3.593,3.593,0,0,0-.293.384,4.54,4.54,0,0,0-.249.429q-.123.24-.233.507l-.078.209-.073.227-.049.182-.04.187c-.02.131-.036.253-.049.384l-.033.493c-.02.362-.053.713-.1,1.056a8.755,8.755,0,0,1-.211,1.038,7.445,7.445,0,0,1-.362,1.033,7.179,7.179,0,0,1-.531,1.011l-.044.069-.013.013c-.124.189-.253.371-.387.556l-.153.2-.162.2-.18.2-.189.2-.191.189c-.149.151-.344.311-.524.46-.136.111-.267.207-.409.309-.191.129-.389.267-.587.382a8.131,8.131,0,0,1-2.5.949,8.283,8.283,0,0,1-4.911-.531,7.975,7.975,0,0,1-3.74-3.291,8.2,8.2,0,0,1-.942-2.5v-.007c-.047-.253-.078-.5-.1-.747s-.042-.476-.058-.689l-.04-.529c-.013-.14-.031-.3-.058-.476l-.033-.169-.042-.18c-.058-.2-.118-.387-.189-.564a4.406,4.406,0,0,0-.244-.5,4.319,4.319,0,0,0-.309-.465,6.069,6.069,0,0,0-.4-.458l-.158-.151-.187-.162-.138-.109-.207-.147-.169-.107-.2-.116-.153-.078-.211-.091-.218-.084-.209-.067-.207-.058-.184-.042-.251-.042-.176-.022-.253-.018h-.024l-.078-.009-.227-.011-.178,0-.236.013-.2.018-.22.033-.216.042-.2.049-.213.064-.173.06-.222.091-.162.071-.2.1-.2.118-.144.093-.189.14-.147.116-.182.16a5.042,5.042,0,0,0-.36.373l0,0a4.185,4.185,0,0,0-.293.384,4.034,4.034,0,0,0-.249.429c-.084.16-.16.329-.233.5l-.078.211-.073.224-.051.184-.038.187c-.02.131-.036.251-.049.384l-.033.491c-.022.364-.053.716-.1,1.058a9.323,9.323,0,0,1-.211,1.038,7.257,7.257,0,0,1-.362,1.033,7.4,7.4,0,0,1-.531,1.009l-.047.071-.011.011c-.127.191-.253.373-.387.558l-.153.2-.164.2-.178.2-.191.2-.191.189a6.882,6.882,0,0,1-.522.46c-.136.111-.267.207-.409.309-.191.129-.389.267-.587.38a8.077,8.077,0,0,1-2.5.951,8.282,8.282,0,0,1-4.911-.531,7.979,7.979,0,0,1-3.74-3.293,8.114,8.114,0,0,1-.94-2.5v-.011c-.049-.251-.082-.5-.107-.742-.027-.26-.042-.478-.058-.691l-.04-.529c-.011-.142-.031-.3-.058-.476l-.033-.171-.042-.178a5.412,5.412,0,0,0-.191-.564,3.654,3.654,0,0,0-.244-.5,3.587,3.587,0,0,0-.309-.464,5.958,5.958,0,0,0-.4-.46l-.158-.149-.189-.164-.138-.109-.207-.144-.169-.107-.2-.116-.153-.078-.211-.091-.218-.084-.209-.069-.209-.058-.182-.04-.253-.042-.171-.022-.256-.018-.207,0-.2,0-.256.02-.167.02-.26.047-.178.038-.224.062a6.225,6.225,0,0,0-.622.242l-.162.08-.184.1-.216.138-.18.129-.144.111-.169.144-.162.156-.151.158-.142.169-.113.138-.118.169-.124.191-.111.191-.08.156-.1.22-.078.193-.067.187-.056.193c-.033.136-.06.264-.089.4l-.036.242-.018.193-.011.231,0,.171.011.242.018.189.029.211.04.2.056.24.047.162.076.22.082.211.08.182.089.171.1.176.124.2.109.153.122.156.144.171c.107.111.211.218.32.316a3.711,3.711,0,0,0,.324.269c.118.087.233.164.353.238s.251.144.407.224c.176.078.342.14.522.2l.247.076.162.042.216.044.322.049.376.029.407.022a8.138,8.138,0,0,1,7.736,7.2l.031.329.016.313.007.309h0l0,.3-.016.32-.033.307a5.642,5.642,0,0,1-.116.693,8.585,8.585,0,0,1-2.491,4.36,7.793,7.793,0,0,1-4.453,2.058c-.182.02-.362.036-.538.047-.3.018-.6.033-.9.058l-.187.024-.173.029-.184.04-.193.049-.22.069-.273.1-.293.127c-.14.073-.264.14-.373.207-.124.078-.242.156-.349.236a3.7,3.7,0,0,0-.324.269c-.109.1-.216.207-.324.32l-.12.142-.147.189-.1.144-.127.2-.107.184-.08.155-.1.222-.062.16-.08.231-.049.169-.053.24-.04.193-.029.213-.018.187-.011.242,0,.173.011.231.018.193.031.207.049.238.042.184.058.2.067.191.089.222.082.178.084.167.12.207.1.158.113.158.153.193.116.138c.173.178.3.3.493.467l.136.107.211.149.169.1.184.109.218.107.158.071.2.078.233.076.213.06.2.042.238.042.171.022.256.018.2,0,.2,0,.256-.02.178-.022.253-.044.2-.042.184-.053.236-.078.211-.08.162-.071.224-.113.151-.087.216-.136.176-.124.147-.116.162-.138.169-.162c.138-.144.264-.289.391-.444.1-.133.187-.262.262-.382v0a4.116,4.116,0,0,0,.2-.364,3.432,3.432,0,0,0,.162-.384c.051-.142.1-.28.136-.42l.047-.2c.031-.182.058-.364.076-.544s.033-.4.049-.616.033-.431.06-.689.058-.491.107-.744v-.009a7.966,7.966,0,0,1,2.913-4.711,8.29,8.29,0,0,1,5.322-1.767h.016a8.649,8.649,0,0,1,1.851.28,8.4,8.4,0,0,1,1.736.691,1.813,1.813,0,0,1,.256.142,8.59,8.59,0,0,1,2.338,2.033,7.675,7.675,0,0,1,1.362,2.678,8.627,8.627,0,0,1,.207.924c.058.324.1.649.12.962,0,.249.033.542.049.8l.016.175.036.222.031.151.067.244.062.193.078.209c.073.178.151.349.233.509a4.076,4.076,0,0,0,.251.427,3.536,3.536,0,0,0,.291.382,4.773,4.773,0,0,0,.38.4l.147.129.173.14.158.111.2.131.176.1.16.084.213.1.193.08.18.062.2.06.229.058.2.038.222.033.191.018.242.013h.2l.1,0,.2,0,.256-.02.178-.02.253-.047.2-.042.187-.051.233-.08.211-.08.162-.071.224-.113.151-.087.216-.136.176-.124.149-.113.16-.14.169-.162c.138-.147.264-.289.393-.444.1-.133.184-.26.26-.382v0c.078-.131.147-.253.2-.367a3.911,3.911,0,0,0,.162-.384c.051-.14.1-.278.138-.42l.044-.2c.033-.18.058-.364.076-.547s.033-.4.051-.613.031-.429.058-.689c.027-.244.058-.491.107-.742v-.009a7.968,7.968,0,0,1,2.916-4.713,8.284,8.284,0,0,1,5.32-1.767h.016a8.7,8.7,0,0,1,1.853.28,8.564,8.564,0,0,1,1.733.691,2.066,2.066,0,0,1,.256.142,8.611,8.611,0,0,1,2.34,2.036,7.65,7.65,0,0,1,1.36,2.678,9.177,9.177,0,0,1,.209.922c.056.325.093.647.12.96,0,.253.031.544.047.8l.018.173.033.222.033.151.064.244.062.193.078.211q.11.267.233.507a4.31,4.31,0,0,0,.251.427,3.3,3.3,0,0,0,.291.384,5.136,5.136,0,0,0,.38.393l.147.129.173.14.158.113.2.129.178.1.158.084.216.1.2.078.178.062.2.06.227.058.2.038.222.033.191.018.244.013h.171l.236-.011.058,0h.036l.253-.02.178-.022.253-.044.2-.042.187-.053.236-.078.209-.08.164-.071.222-.113.151-.087.216-.136.176-.124.149-.116.16-.138.169-.162c.138-.144.267-.289.393-.444.1-.133.184-.262.258-.382v0a3.248,3.248,0,0,0,.2-.364c.06-.127.116-.251.164-.384s.1-.28.133-.42l.049-.2c.031-.182.056-.364.073-.544s.036-.4.051-.616.031-.431.058-.689.06-.491.107-.744v-.009a7.969,7.969,0,0,1,2.916-4.711,8.288,8.288,0,0,1,5.32-1.767h.018a8.606,8.606,0,0,1,1.849.28,8.4,8.4,0,0,1,1.736.691,1.811,1.811,0,0,1,.256.142,8.6,8.6,0,0,1,2.34,2.033,7.669,7.669,0,0,1,1.36,2.678,9.217,9.217,0,0,1,.209.924c.056.324.1.649.118.962,0,.249.033.542.049.8l.018.175.033.222.033.151.067.244.06.193.078.209c.073.178.151.349.233.509a4.509,4.509,0,0,0,.251.427,3.875,3.875,0,0,0,.293.382,4.729,4.729,0,0,0,.378.4l.149.129.171.14.158.111.2.131.178.1.16.084.213.1.2.08.178.062.2.06.227.058.2.038.222.033.189.018.242.013h.173l.236-.011.189-.018.222-.031.2-.038.242-.058a4.813,4.813,0,0,0,.976-.391l.153-.089.184-.12.193-.136.14-.109.16-.138.156-.149.162-.169.129-.156.133-.167.129-.182.122-.191.107-.187.08-.162.089-.2.093-.236.062-.187c.038-.14.073-.273.107-.418l.038-.231.024-.18.02-.253.007-.2,0-.2-.018-.216-.029-.247-.031-.193-.047-.218-.058-.216-.067-.2-.076-.2-.073-.171-.109-.222-.089-.16-.113-.18-.129-.187-.142-.187-.111-.133-.167-.178-.153-.147-.164-.144-.162-.133-.151-.111-.3-.182q-.12-.07-.273-.147c-.087-.047-.176-.087-.267-.127s-.171-.069-.269-.1l-.244-.071-.193-.049-.156-.031-.2-.031-.464-.055-.229-.018c-.251-.02-.5-.04-.791-.073-.278-.029-.556-.069-.842-.122h0a7.4,7.4,0,0,1-2.4-.927,10.672,10.672,0,0,1-1.942-1.556l-.222-.22v-.06c-.1-.127-.209-.256-.307-.389-.151-.2-.3-.42-.444-.662l-.149-.267-.127-.251-.242-.518a7.262,7.262,0,0,1-.26-.718,4.954,4.954,0,0,1-.182-.716l-.049-.276-.044-.3-.036-.3c-.013-.116-.029-.236-.038-.351-.018-.209-.027-.322-.027-.451.011-.271.031-.522.06-.791l.038-.307.047-.309a3.156,3.156,0,0,1,.078-.393c.073-.222.12-.371.162-.513a8.47,8.47,0,0,1,.527-1.387l.32-.662.047.022c.076-.116.149-.224.227-.333.124-.171.251-.338.4-.52v-.064l.227-.22a10.4,10.4,0,0,1,1.94-1.551,7.829,7.829,0,0,1,2.38-.92l.016-.007c.267-.051.529-.087.789-.118h0c.28-.031.509-.051.738-.069l.553-.047.213-.029.236-.038.151-.031.193-.049.229-.069c.091-.031.184-.069.284-.111a2.527,2.527,0,0,0,.269-.124l0,0c.1-.049.187-.1.264-.14l.271-.164.184-.133c.111-.091.209-.176.316-.271l.156-.149.158-.164L186,262.7l.111-.142.12-.176.122-.193.111-.2.08-.162.1-.229.073-.2.058-.178.062-.236.044-.2.031-.2.029-.247.016-.218,0-.2,0-.2-.022-.255-.024-.18a6.414,6.414,0,0,0-.144-.644l-.064-.187-.091-.238-.076-.169-.1-.209-.111-.193-.116-.185-.1-.147-.14-.178-.136-.158-.162-.167-.156-.151-.162-.14-.147-.113-.169-.122-.2-.127-.2-.111-.151-.078-.224-.1-.164-.067-.227-.078-.171-.051-.244-.056-.207-.04-.211-.029-.193-.02-.229-.011Z" transform="translate(-102.069 -255.522)" fill="url(#linear-gradient-2)"/>
      <g id="Group_3145" data-name="Group 3145" clip-path="url(#clip-path-2)">
        <rect id="Rectangle_1125" data-name="Rectangle 1125" width="84.889" height="34.047" transform="translate(0 0.001)" fill="url(#linear-gradient-8)"/>
      </g>
    </g>
    <g id="Group_3148" data-name="Group 3148" transform="translate(194.702 285.74)">
      <path id="Path_5281" data-name="Path 5281" d="M134.793,266.854l-.2.016-.207.027-.22.04-.216.047-.2.056a6.224,6.224,0,0,0-.618.238l-.187.1-.184.1-.18.113-.176.124-.169.133-.158.133c-.118.118-.22.216-.333.338l-.133.156-.131.169-.12.169-.111.175-.1.185-.1.187c-.067.144-.111.26-.169.409s-.084.262-.122.409l-.051.22-.038.22-.029.2-.013.207v.447c.011.149.022.267.042.416s.051.28.084.433l.053.2c.049.142.093.271.149.411l.089.2.091.187.109.189.116.182.127.176.131.173.14.156.238.249.133.12.142.122.151.116.156.1a2.137,2.137,0,0,0,.184.12l.187.107.193.1.193.087.209.08.2.064.207.058.213.047.218.04.207.024.2.016h.444l.209-.016c.149-.018.28-.04.427-.064l.209-.047.213-.06.2-.064.2-.076.2-.091.189-.1.182-.1.184-.118.191-.136.16-.122.171-.147c.111-.111.216-.213.324-.327.089-.107.164-.2.249-.309l.12-.176c.044-.062.084-.124.122-.187l.107-.184.1-.2.087-.2.082-.211c.071-.216.118-.391.169-.613l.036-.22.029-.209.016-.2v-.444l-.016-.209c-.02-.149-.04-.28-.064-.427-.011-.056-.027-.131-.051-.22l-.049-.193-.073-.216-.076-.191-.089-.2-.1-.193c-.027-.056-.064-.12-.1-.187l-.118-.184-.124-.173-.138-.176c-.033-.042-.082-.1-.144-.167-.111-.12-.2-.213-.324-.324l-.156-.131a1.478,1.478,0,0,0-.153-.122c-.184-.129-.347-.233-.547-.347l-.189-.093c-.142-.064-.267-.113-.411-.169a1.848,1.848,0,0,0-.2-.067l-.2-.056-.216-.047-.218-.04-.2-.027-.207-.016Z" transform="translate(-130.628 -266.854)" fill="url(#linear-gradient-3)"/>
      <g id="Group_3147" data-name="Group 3147" clip-path="url(#clip-path-3)">
        <rect id="Rectangle_1126" data-name="Rectangle 1126" width="8.787" height="8.786" transform="translate(-0.001 0.001)" fill="url(#linear-gradient-10)"/>
      </g>
    </g>
    <g id="Group_3150" data-name="Group 3150" transform="translate(143.874 285.74)">
      <path id="Path_5283" data-name="Path 5283" d="M111.923,266.854l-.207.016-.2.027-.22.04-.218.047-.2.056a6.488,6.488,0,0,0-.62.238l-.184.1-.182.1-.18.113-.176.124-.171.133-.156.133c-.118.118-.22.216-.333.338l-.136.156-.131.169-.12.169-.109.175-.107.185-.093.187c-.069.144-.113.26-.169.409s-.084.262-.124.409l-.049.22-.04.22-.024.2-.016.207v.447c.011.149.02.267.04.416s.053.28.087.433l.053.2c.047.142.093.271.147.411l.089.2.093.187.111.189.113.182.124.176.133.173.138.156.242.249.129.12.142.122.153.116.153.1c.069.049.133.089.187.12l.184.107.193.1.193.087.211.08.2.064.209.058.211.047.22.04.2.024.207.016h.444l.209-.016c.149-.018.278-.04.427-.064l.209-.047.213-.06.2-.064.2-.076.2-.091.191-.1.182-.1.184-.118.189-.136.16-.122.171-.147c.113-.111.218-.213.327-.327.089-.107.164-.2.249-.309l.12-.176c.042-.062.084-.124.12-.187l.107-.184.1-.2.087-.2.082-.211c.069-.216.118-.391.167-.613l.038-.22.027-.209.016-.2v-.444l-.016-.209c-.018-.149-.038-.28-.064-.427-.009-.056-.027-.131-.049-.22l-.051-.193-.071-.216-.076-.191-.091-.2-.1-.193c-.029-.056-.064-.12-.107-.187l-.116-.184-.122-.173-.14-.176c-.033-.042-.08-.1-.142-.167-.111-.12-.207-.213-.324-.324l-.156-.131c-.042-.038-.093-.078-.153-.122-.187-.129-.349-.233-.547-.347l-.189-.093c-.142-.064-.267-.113-.413-.169a1.593,1.593,0,0,0-.2-.067l-.2-.056-.213-.047-.222-.04-.2-.027-.207-.016Z" transform="translate(-107.756 -266.854)" fill="url(#linear-gradient-4)"/>
      <g id="Group_3149" data-name="Group 3149" clip-path="url(#clip-path-4)">
        <rect id="Rectangle_1127" data-name="Rectangle 1127" width="8.785" height="8.786" transform="translate(-0.001 0.001)" fill="url(#linear-gradient-12)"/>
      </g>
    </g>
    <path id="Path_5285" data-name="Path 5285" d="M133.533,301.98c.92-.151,1.838-.26,2.758-.393s1.858-.2,2.738-.349a25.7,25.7,0,0,0,13.751-6.349,23.485,23.485,0,0,0,0-34.818,25.7,25.7,0,0,0-13.751-6.349c-.88-.153-1.827-.227-2.738-.351s-1.838-.242-2.758-.393v-.709c1.847-.28,3.658-.533,5.533-.7a24.365,24.365,0,0,1,5.82.2,25.306,25.306,0,0,1,10.931,4.576,26.164,26.164,0,0,1,7.773,9.258,26.259,26.259,0,0,1,0,23.756,26.184,26.184,0,0,1-7.773,9.258,25.306,25.306,0,0,1-10.931,4.576,24.594,24.594,0,0,1-5.82.2c-1.876-.167-3.687-.42-5.533-.7Z" transform="translate(67.624 0.096)" fill="url(#linear-gradient-13)"/>
    <path id="Path_5286" data-name="Path 5286" d="M128.884,253.071c-1.927.289-3.853.511-5.782.722l-1.447.153-1.364.2a18.6,18.6,0,0,0-2.667.573,23.86,23.86,0,0,0-9.36,4.86,23.288,23.288,0,0,0,0,35.981,23.894,23.894,0,0,0,9.36,4.862,18.611,18.611,0,0,0,2.667.573l1.364.2,1.447.153c1.929.211,3.856.431,5.782.722v.7c-1.927.289-3.853.511-5.782.722l-1.447.153-1.52.06a21.54,21.54,0,0,1-3.073-.078,24.623,24.623,0,0,1-11.669-4.222,25.711,25.711,0,0,1-8.458-9.425,26.405,26.405,0,0,1,0-24.836,25.735,25.735,0,0,1,8.458-9.427,24.62,24.62,0,0,1,11.669-4.22,21.535,21.535,0,0,1,3.073-.078l1.52.06,1.447.153c1.929.211,3.856.431,5.782.722Z" transform="translate(19.099 0)" fill="url(#linear-gradient-14)"/>
</g>
</svg>
